<svg xmlns="http://www.w3.org/2000/svg" viewBox="0 0 64 64">
  <defs>
    <linearGradient id="g1" x1="0" x2="1">
      <stop offset="0" stop-color="#4da3ff"/>
      <stop offset="1" stop-color="#60d394"/>
    </linearGradient>
    <linearGradient id="bg" x1="0" y1="0" x2="1" y2="1">
      <stop offset="0" stop-color="#0e1a2a"/>
      <stop offset="1" stop-color="#08111a"/>
    </linearGradient>
  </defs>
  <rect width="64" height="64" rx="16" fill="url(#bg)"/>
  <path fill="url(#g1)" d="M57.33 15.06c0 3.65-5.55 6.84-13.74 8.53C51.78 25.26 57.33 28.48 57.33 32s-5.55 6.76-13.74 8.45c8.19 1.69 13.74 4.91 13.74 8.61 0 5.43-11.93 9.38-25.33 9.38S6.67 54.49 6.67 49.06c0-3.7 5.55-6.92 13.74-8.61C12.22 38.76 6.67 35.54 6.67 32s5.55-6.74 13.74-8.41C12.22 21.9 6.67 18.68 6.67 15.02 6.67 9.59 18.6 5.67 32 5.67s25.33 3.92 25.33 9.39Z"/>
</svg>
